<svg width="64" height="64" viewBox="0 0 64 64" fill="none" xmlns="http://www.w3.org/2000/svg">
<g clip-path="url(#clip0)">
<path d="M62.1684 50.2055C64.6055 52.6425 64.6055 56.6073 62.1684 59.0443C62.165 59.0482 62.1611 59.0516 62.1572 59.0555L57.8809 63.2787C57.3936 63.7596 56.7588 63.9999 56.1245 63.9999C55.479 63.9999 54.8345 63.7518 54.3452 63.2567C53.3755 62.2743 53.3853 60.6913 54.3677 59.7211L56.8696 57.2499H16.7491C11.235 57.2499 6.74913 52.7641 6.74913 47.2499V7.06883L4.25499 9.52977C3.27208 10.4995 1.68908 10.4887 0.719356 9.50584C-0.250369 8.52293 -0.239627 6.93993 0.743281 5.9702L4.96691 1.80371C7.39708 -0.593749 11.3512 -0.593749 13.7813 1.80371L18.005 5.9702C18.9879 6.93993 18.9986 8.52293 18.0289 9.50584C17.5396 10.0014 16.8946 10.25 16.2491 10.25C15.6148 10.25 14.9806 10.0102 14.4933 9.52977L11.7491 6.82225V47.2499C11.7491 50.0067 13.9923 52.2499 16.7491 52.2499H57.1231L54.3677 49.5287C53.3853 48.5585 53.375 46.9755 54.3452 45.9931C55.3154 45.0111 56.8984 45.0009 57.8809 45.9711L62.1572 50.1942C62.1611 50.1981 62.165 50.2016 62.1684 50.2055ZM56.499 0H24.1241C22.7398 0 21.6192 1.125 21.6241 2.50927C21.6295 3.88622 22.7471 4.99999 24.1241 4.99999H56.499C57.8799 4.99999 58.999 6.11913 58.999 7.49999V39.9999C58.999 41.3769 60.1128 42.495 61.4897 42.4999C62.874 42.5048 63.999 41.3842 63.999 39.9999V7.49999C63.999 3.3579 60.6411 0 56.499 0ZM36.7491 42.8612C38.1299 42.8612 39.2491 41.7421 39.2491 40.3612V29.2343C39.2491 25.4433 36.1651 22.3593 32.3741 22.3593C30.7134 22.3593 29.1885 22.9511 27.9991 23.935C26.8096 22.9511 25.2847 22.3593 23.6241 22.3593C22.6705 22.3593 21.7613 22.5551 20.9351 22.9077C20.4903 22.5004 19.8995 22.25 19.2491 22.25C17.8682 22.25 16.7491 23.3691 16.7491 24.75V40.3749C16.7491 41.7558 17.8682 42.8749 19.2491 42.8749C20.63 42.8749 21.7491 41.7558 21.7491 40.3749V29.2343C21.7491 28.2006 22.5904 27.3593 23.6241 27.3593C24.6578 27.3593 25.4991 28.2006 25.4991 29.2343V40.3749C25.4991 41.7558 26.6182 42.8749 27.9991 42.8749C29.3799 42.8749 30.4991 41.7558 30.4991 40.3749V29.2343C30.4991 28.2006 31.3404 27.3593 32.3741 27.3593C33.4078 27.3593 34.2491 28.2006 34.2491 29.2343V40.3612C34.2491 41.7421 35.3682 42.8612 36.7491 42.8612ZM48.0928 13.5C48.0796 13.5 48.0669 13.5019 48.0537 13.5019C48.041 13.5019 48.0283 13.5 48.0152 13.5C44.836 13.5 42.2491 16.0898 42.2491 19.2729C42.2491 20.6533 43.3682 21.7729 44.7491 21.7729C46.1299 21.7729 47.249 20.6533 47.249 19.2729C47.249 18.854 47.6001 18.5 48.0152 18.5C48.0283 18.5 48.041 18.498 48.0542 18.498C48.0669 18.498 48.0796 18.5 48.0928 18.5C48.4907 18.5 48.8296 18.8252 48.857 19.2212C48.8076 19.4043 48.4243 20.5366 46.0288 23.1718C44.543 24.8056 43.083 26.1362 43.0689 26.1489C42.3037 26.8432 42.045 27.937 42.417 28.9003C42.7891 29.8642 43.7159 30.4999 44.7491 30.4999H51.499C52.8799 30.4999 53.999 29.3808 53.999 27.9999C53.999 26.6191 52.8799 25.5 51.499 25.5H50.6392C52.8589 22.8867 53.8589 20.9419 53.8589 19.2729C53.8589 16.0898 51.272 13.5 48.0928 13.5Z" fill="#272B34"/>
</g>
<defs>
<clipPath id="clip0">
<rect width="64" height="64" fill="white"/>
</clipPath>
</defs>
</svg>
