<svg width="49" height="48" viewBox="0 0 49 48" fill="none" xmlns="http://www.w3.org/2000/svg">
<g clip-path="url(#clip0)">
<path d="M33.8207 46.7356L25.6448 40.5656L33.6328 34.5375H36.1902C37.6264 34.5375 38.7949 33.3703 38.7949 31.9356C38.7949 31.044 38.069 30.3187 37.1767 30.3187H25.1807V19.6424C25.1807 18.3047 26.2711 17.2164 27.6114 17.2164C28.9517 17.2164 30.0421 18.3047 30.0421 19.6424C30.0421 20.0307 30.3569 20.3455 30.7453 20.3455C31.1282 20.3455 31.4396 20.0394 31.4482 19.6586C31.449 19.6326 31.4504 19.5833 31.4519 19.5125C31.5197 18.2349 32.5825 17.2164 33.8792 17.2164C35.2195 17.2164 36.31 18.3047 36.31 19.6424C36.31 20.0307 36.6247 20.3455 37.0131 20.3455C37.3964 20.3455 37.7079 20.0389 37.7161 19.6577C37.7162 19.6489 37.7168 19.6212 37.7172 19.576C37.7525 18.2689 38.8289 17.2164 40.147 17.2164C41.4873 17.2164 42.5777 18.3047 42.5777 19.6424C42.5777 20.0307 42.8925 20.3455 43.2809 20.3455C43.6693 20.3455 43.984 20.0307 43.984 19.6424C43.984 15.2585 41.8957 10.7859 38.2546 7.37147C34.6486 3.99009 30.0299 2.058 25.1808 1.88737V0.703125C25.1808 0.314812 24.8661 0 24.4777 0C24.0893 0 23.7746 0.314812 23.7746 0.703125V1.88737C18.9256 2.058 14.3069 3.99009 10.7009 7.37147C7.05972 10.7858 4.97144 15.2585 4.97144 19.6424C4.97144 20.0307 5.28615 20.3455 5.67456 20.3455C6.06297 20.3455 6.37769 20.0307 6.37769 19.6424C6.37769 18.3047 7.46809 17.2164 8.80843 17.2164C10.1488 17.2164 11.2392 18.3047 11.2392 19.6424C11.2392 20.0307 11.5539 20.3455 11.9423 20.3455C12.3307 20.3455 12.6454 20.0307 12.6454 19.6424C12.6454 18.3047 13.7359 17.2164 15.0763 17.2164C16.3729 17.2164 17.4356 18.2349 17.5036 19.5125C17.5051 19.5833 17.5065 19.6327 17.5072 19.6586C17.5158 20.0394 17.8272 20.3455 18.2102 20.3455C18.5986 20.3455 18.9133 20.0307 18.9133 19.6424C18.9133 18.3047 20.0037 17.2164 21.344 17.2164C22.6844 17.2164 23.7748 18.3047 23.7748 19.6424V30.3187H21.4237C21.0353 30.3187 20.7206 30.6336 20.7206 31.0219C20.7206 31.4102 21.0353 31.725 21.4237 31.725H37.1771C37.294 31.725 37.3891 31.8195 37.3891 31.9356C37.3891 32.5949 36.8514 33.1312 36.1906 33.1312H12.765C12.1041 33.1312 11.5665 32.5949 11.5665 31.9356C11.5665 31.8195 11.6615 31.725 11.7784 31.725H18.146C18.5344 31.725 18.8492 31.4102 18.8492 31.0219C18.8492 30.6336 18.5344 30.3187 18.146 30.3187H11.7784C10.8861 30.3187 10.1602 31.044 10.1602 31.9356C10.1602 33.3703 11.3287 34.5375 12.765 34.5375H15.3224L23.3103 40.5656L15.1344 46.7356C14.8244 46.9695 14.7628 47.4104 14.9967 47.7203C15.135 47.9035 15.3454 48 15.5584 48C15.7059 48 15.8546 47.9538 15.9814 47.8581L23.7745 41.977V46.5938H22.1303C21.7419 46.5938 21.4272 46.9086 21.4272 47.2969C21.4272 47.6852 21.7419 48 22.1303 48H26.8249C27.2133 48 27.5281 47.6852 27.5281 47.2969C27.5281 46.9086 27.2133 46.5938 26.8249 46.5938H25.1807V41.9771L32.9737 47.8582C33.1006 47.9539 33.2491 48.0001 33.3967 48.0001C33.6097 48.0001 33.8204 47.9036 33.9585 47.7204C34.1924 47.4104 34.1308 46.9695 33.8207 46.7356ZM37.2924 8.39728C39.7381 10.6907 41.4242 13.4873 42.1604 16.3814C41.5747 16.0193 40.8848 15.8102 40.1469 15.8102C39.151 15.8102 38.2426 16.1912 37.5598 16.8148C37.4824 16.0966 37.3677 15.2775 37.1977 14.3996C36.275 9.63525 34.4369 6.86897 33.0097 5.36334C34.5501 6.16078 35.9919 7.17778 37.2924 8.39728ZM31.8771 6.21441C34.7111 9.10763 35.7354 13.5514 36.1044 16.5221C35.4764 16.0741 34.708 15.8102 33.8792 15.8102C32.9434 15.8102 32.085 16.1465 31.4183 16.7044C31.2743 13.0639 30.6631 7.00331 28.2745 3.89972C29.6392 4.38656 30.8438 5.15953 31.8771 6.21441ZM25.1807 3.36075C25.7655 3.49837 26.2944 3.81572 26.7837 4.32C29.2121 6.82331 29.8461 12.9503 30.0023 16.6472C29.3461 16.1236 28.5147 15.8101 27.6114 15.8101C26.6897 15.8101 25.843 16.1363 25.1807 16.6793V3.36075ZM17.5368 16.7044C16.8702 16.1465 16.0117 15.8102 15.076 15.8102C14.2452 15.8102 13.4752 16.0753 12.8463 16.5252C12.9863 15.3872 13.2224 14.0337 13.6202 12.6372C13.7266 12.2637 13.51 11.8748 13.1366 11.7683C12.7636 11.6619 12.374 11.8784 12.2677 12.252C11.7893 13.9315 11.5321 15.5325 11.3943 16.8138C10.7117 16.1907 9.80369 15.8101 8.80825 15.8101C8.07034 15.8101 7.38043 16.0192 6.79478 16.3813C7.53081 13.4872 9.217 10.6906 11.6627 8.39719C12.9635 7.17741 14.4056 6.16031 15.9464 5.36269C14.9249 6.43875 14.0537 7.75725 13.3456 9.30131C13.1837 9.65428 13.3386 10.0717 13.6916 10.2336C13.7866 10.2771 13.8861 10.2978 13.9842 10.2978C14.2506 10.2978 14.5055 10.1455 14.6237 9.88762C16.0222 6.83822 18.0522 4.8345 20.6826 3.89728C18.2925 7.00003 17.6808 13.0628 17.5368 16.7044ZM23.7744 16.6793C23.1122 16.1364 22.2653 15.8101 21.3437 15.8101C20.4404 15.8101 19.609 16.1235 18.9527 16.6472C19.1089 12.9503 19.743 6.82331 22.1714 4.32C22.6607 3.81572 23.1896 3.49837 23.7744 3.36075V16.6793ZM23.7744 39.1541L17.6568 34.5375H23.7744V39.1541ZM25.1807 34.5375H31.2982L25.1807 39.1541V34.5375Z" fill="#272B34"/>
<path d="M11.8356 36.4126H3.24017L1.90189 24.4943C1.85848 24.1084 1.51058 23.8309 1.1247 23.874C0.738826 23.9174 0.461138 24.2654 0.504451 24.6512L1.90854 37.155V47.297C1.90854 47.6853 2.22326 48.0001 2.61167 48.0001C3.00008 48.0001 3.31479 47.6853 3.31479 47.297V40.6314H12.038V47.297C12.038 47.6853 12.3528 48.0001 12.7412 48.0001C13.1296 48.0001 13.4443 47.6853 13.4443 47.297L13.4525 38.0295C13.4525 37.1379 12.7271 36.4126 11.8356 36.4126ZM12.0462 39.2251H3.3147V37.8189H11.8355C11.9516 37.8189 12.0461 37.9134 12.0461 38.0295V39.2251H12.0462Z" fill="#272B34"/>
<path d="M47.8753 23.874C47.489 23.831 47.1416 24.1084 47.0982 24.4943L45.7599 36.4126H42.9088C42.5203 36.4126 42.2056 36.7274 42.2056 37.1157C42.2056 37.5041 42.5203 37.8189 42.9088 37.8189H45.6853V39.2251H36.9539V38.0294C36.9539 37.9134 37.049 37.8189 37.1658 37.8189H39.6083C39.9967 37.8189 40.3114 37.5041 40.3114 37.1157C40.3114 36.7274 39.9967 36.4126 39.6083 36.4126H37.1658C36.2735 36.4126 35.5476 37.1379 35.5476 38.0294L35.5559 47.297C35.5559 47.6853 35.8706 48.0001 36.259 48.0001C36.6474 48.0001 36.9621 47.6853 36.9621 47.297V40.6314H45.6853V47.297C45.6853 47.6853 46.0001 48.0001 46.3885 48.0001C46.7769 48.0001 47.0916 47.6853 47.0916 47.297V37.155L48.4956 24.6512C48.5389 24.2653 48.2612 23.9173 47.8753 23.874Z" fill="#272B34"/>
</g>
<defs>
<clipPath id="clip0">
<rect width="48" height="48" fill="white" transform="translate(0.5)"/>
</clipPath>
</defs>
</svg>
