<svg width="48" height="49" viewBox="0 0 48 49" fill="none" xmlns="http://www.w3.org/2000/svg">
<path d="M47.3761 43.8619H0.623918C0.279266 43.8619 0 43.5826 0 43.238V40.5759C0 40.2312 0.279266 39.9519 0.623918 39.9519H1.3831V22.8152H0.623918C0.279266 22.8152 0 22.5359 0 22.1912C0 21.8466 0.279266 21.5673 0.623918 21.5673H13.0341V5.2621C13.0341 4.91745 13.3134 4.63818 13.6581 4.63818H34.1802C34.5249 4.63818 34.8041 4.91745 34.8041 5.2621V21.5671H47.3761C47.7207 21.5671 48 21.8463 48 22.191C48 22.5356 47.7207 22.8149 47.3761 22.8149H46.6379V39.9519H47.3761C47.7207 39.9519 48 40.2312 48 40.5759V43.238C48 43.5826 47.7207 43.8619 47.3761 43.8619ZM1.24784 42.6141H46.7522V41.1998H1.24784V42.6141ZM43.2687 39.9519H45.39V22.8152H43.2687V39.9519ZM39.1276 39.9519H42.0209V22.8152H39.1276V39.9519ZM34.9866 39.9519H37.8798V22.8152H34.9866V39.9519ZM30.8458 39.9519H33.5563V22.8152H30.8458V39.9519ZM26.7047 39.9519H29.5979V22.8152H26.7047V39.9519ZM22.5639 39.9519H25.4568V22.8152H22.5639V39.9519ZM18.4228 39.9519H21.316V22.8152H18.4228V39.9519ZM14.282 39.9519H17.1752V22.8152H14.282V39.9519ZM10.1409 39.9519H13.0339V22.8152H10.1409V39.9519ZM6.00009 39.9519H8.89333V22.8152H6.00009V39.9519ZM2.63094 39.9519H4.75226V22.8152H2.63094V39.9519ZM32.1133 21.5673H33.5563V5.88602H14.282V21.5671H15.7252V7.96566C15.7252 7.62101 16.0045 7.34175 16.3491 7.34175H22.7548C23.0994 7.34175 23.3787 7.62101 23.3787 7.96566V21.5671H24.4601V7.96566C24.4601 7.62101 24.7393 7.34175 25.084 7.34175H31.4896C31.8343 7.34175 32.1136 7.62101 32.1136 7.96566V21.5673H32.1133ZM25.7077 21.5601H30.8655V8.58983H25.7077V21.5601ZM16.9728 21.5601H22.1306V8.58983H16.9728V21.5601Z" fill="#272B34"/>
</svg>
