<svg width="48" height="48" viewBox="0 0 48 48" fill="none" xmlns="http://www.w3.org/2000/svg">
<g clip-path="url(#clip0)">
<path d="M15.3388 16.129L11.461 13.9127C12.7526 12.9379 13.5894 11.3903 13.5894 9.65076C13.5894 6.70715 11.1948 4.3125 8.25117 4.3125C5.30794 4.3125 2.91328 6.70715 2.91328 9.65076C2.91328 11.3906 3.75044 12.9382 5.04243 13.9135L1.16426 16.1327C0.430007 16.5538 -0.0160381 17.3408 0.000441357 18.1904L0.0297382 19.4454C0.0418232 19.9633 0.471022 20.3723 0.988845 20.361C1.50667 20.3489 1.91646 19.9193 1.90437 19.4019L1.87508 18.1501C1.87141 17.9579 1.9875 17.822 2.09627 17.7598L6.83357 15.0487C6.90169 15.0095 6.9753 14.9897 7.05366 14.9897H7.05403L9.44905 14.9886C9.53511 14.9886 9.61494 15.0117 9.68636 15.0571C9.69844 15.0648 9.71089 15.0721 9.72371 15.0795L14.4083 17.7565C14.5603 17.8433 14.647 18.0121 14.6295 18.1864C14.6273 18.2102 14.6254 18.234 14.6251 18.2578L14.2926 32.484C14.2882 32.6964 14.1406 32.8414 13.9959 32.8912C13.9886 32.8938 13.9809 32.8964 13.9736 32.8993L11.2926 33.8976C10.9263 34.0342 10.6832 34.3835 10.6824 34.7743L10.6696 41.3675C10.6696 41.6096 10.4726 41.807 10.2291 41.807L6.27217 41.8121C6.02717 41.8121 5.82759 41.6129 5.82759 41.3675C5.82759 39.4651 5.82539 37.3704 5.82027 34.7747C5.81953 34.3835 5.57637 34.0342 5.21016 33.8979L2.49654 32.8872C2.30025 32.814 2.21126 32.6294 2.21016 32.4785C2.21016 32.4738 2.20979 32.4686 2.20979 32.4639L2.07979 26.8997C2.0677 26.3818 1.63594 25.9724 1.12068 25.9841C0.602858 25.9962 0.193068 26.4258 0.205153 26.9432L0.335158 32.5016C0.346511 33.4519 0.951125 34.3121 1.84212 34.6443L3.94673 35.428C3.95076 37.7267 3.95259 39.6277 3.95259 41.3675C3.95259 42.6467 4.99336 43.6871 6.27364 43.6871L10.2302 43.6816C11.5064 43.6816 12.5446 42.6434 12.5446 41.3694L12.556 35.428L14.6181 34.66C15.5263 34.3418 16.1481 33.4838 16.1668 32.5243L16.499 18.3333C16.5726 17.4379 16.1207 16.5762 15.3388 16.129ZM8.25154 6.1875C10.161 6.1875 11.7144 7.74097 11.7144 9.65076C11.7144 11.5602 10.161 13.1136 8.25154 13.1136C6.34175 13.1136 4.78828 11.5602 4.78828 9.65076C4.78828 7.74133 6.34175 6.1875 8.25154 6.1875Z" fill="#272B34"/>
<path d="M47.9343 31.3582L47.6699 30.2646C47.5483 29.7611 47.0418 29.452 46.5383 29.5736C46.0351 29.6952 45.7257 30.202 45.8476 30.7052L46.112 31.7991C46.1673 32.0272 46.0344 32.2579 45.8099 32.3242C45.796 32.3282 45.782 32.3326 45.7681 32.3374L41.2172 33.9132C40.8404 34.0439 40.5874 34.3984 40.5866 34.7972L40.5738 41.3674C40.5738 41.6099 40.3768 41.8069 40.1333 41.8069L36.1767 41.8124C36.0068 41.8124 35.8995 41.723 35.8508 41.6699C35.801 41.6157 35.7197 41.4993 35.734 41.3268C35.7362 41.3 35.7373 41.2733 35.7373 41.2466L35.7248 34.7972C35.7241 34.3984 35.471 34.0439 35.0942 33.9132L30.4843 32.3169C30.2727 32.244 30.1482 32.0173 30.2009 31.7991L33.666 17.4648C33.6971 17.3374 33.7725 17.2594 33.8308 17.2155L36.6931 15.0779C36.7905 15.005 36.8901 14.9896 36.9578 14.9896H36.9586L39.3536 14.9885C39.4832 14.9885 39.577 15.042 39.6323 15.087C39.6418 15.0947 39.6517 15.1021 39.6612 15.1094L42.4832 17.2129C42.5751 17.2817 42.6363 17.3817 42.6553 17.4949C42.659 17.5168 42.6634 17.5388 42.6689 17.5604L44.0847 23.4154C44.2062 23.9186 44.7123 24.228 45.2163 24.1064C45.7194 23.9845 46.0289 23.478 45.9073 22.9749L44.4981 17.1481C44.3919 16.5717 44.0759 16.0623 43.6042 15.71L41.2784 13.9763C42.6195 13.0055 43.494 11.4286 43.494 9.65063C43.494 6.70703 41.0993 4.31274 38.1561 4.31274C35.2128 4.31274 32.8182 6.70703 32.8182 9.65063C32.8182 11.429 33.6931 13.0059 35.0345 13.9767L32.7098 15.7129C32.2784 16.0352 31.9708 16.5006 31.8441 17.0243L28.3794 31.3574C28.0955 32.5238 28.7382 33.6986 29.8728 34.0894L33.8516 35.4674L33.8626 41.2151C33.822 41.8472 34.0424 42.473 34.4709 42.9388C34.9082 43.4146 35.53 43.6874 36.1785 43.6874L40.1351 43.6819C41.411 43.6819 42.4495 42.6437 42.4495 41.3693L42.4609 35.467L46.3643 34.1154C47.5336 33.7568 48.2228 32.5509 47.9343 31.3582ZM38.1557 6.18738C40.0651 6.18738 41.6186 7.74084 41.6186 9.65063C41.6186 11.5601 40.0651 13.1135 38.1557 13.1135C36.2463 13.1135 34.6928 11.5601 34.6928 9.65063C34.6928 7.74084 36.2463 6.18738 38.1557 6.18738Z" fill="#272B34"/>
<path d="M22.5232 0C20.9723 0 19.7107 1.2616 19.7107 2.8125V45.1871C19.7107 46.738 20.9723 47.9996 22.5232 47.9996C24.0741 47.9996 25.3357 46.738 25.3357 45.1871V2.8125C25.3357 1.2616 24.0741 0 22.5232 0ZM23.4607 45.1875C23.4607 45.7042 23.0403 46.125 22.5232 46.125C22.0065 46.125 21.5857 45.7042 21.5857 45.1875V2.8125C21.5857 2.29541 22.0065 1.875 22.5232 1.875C23.0403 1.875 23.4607 2.29541 23.4607 2.8125V45.1875Z" fill="#272B34"/>
<path d="M1.05469 24.1102C1.57251 24.1102 1.99219 23.6906 1.99219 23.1727V23.172C1.99219 22.6545 1.57251 22.2349 1.05469 22.2349C0.536865 22.2349 0.117188 22.6549 0.117188 23.1727C0.117188 23.6906 0.536865 24.1102 1.05469 24.1102Z" fill="#272B34"/>
<path d="M45.6197 25.9386C45.1221 26.0807 44.8339 26.6 44.9759 27.0981C45.0939 27.5097 45.4692 27.7781 45.8772 27.7781C45.9621 27.7781 46.0489 27.7664 46.135 27.7419C46.633 27.5994 46.9212 27.0805 46.7788 26.5828V26.5821C46.6363 26.0844 46.1174 25.7965 45.6197 25.9386Z" fill="#272B34"/>
</g>
<defs>
<clipPath id="clip0">
<rect width="48" height="48" fill="white"/>
</clipPath>
</defs>
</svg>
