<svg width="33" height="33" viewBox="0 0 33 33" fill="none" xmlns="http://www.w3.org/2000/svg">
<path d="M13.1667 32.0303C13.0533 32.0303 12.94 32.0023 12.8387 31.9436C12.6293 31.8249 12.5 31.6036 12.5 31.3636V17.8943C12.5 17.3223 12.2547 16.7783 11.828 16.3996L1.61733 7.32894C0.908 6.70094 0.5 5.78894 0.5 4.83027V2.03027C0.5 0.927607 1.39733 0.0302734 2.5 0.0302734H30.5C31.6027 0.0302734 32.5 0.927607 32.5 2.03027V4.83027C32.5 5.78894 32.092 6.70094 31.3813 7.33027L21.172 16.4009C20.7453 16.7796 20.5 17.3236 20.5 17.8943V26.6076C20.5 27.3049 20.1293 27.9623 19.5293 28.3223L13.508 31.9343C13.404 31.9983 13.2853 32.0303 13.1667 32.0303V32.0303ZM2.5 1.36361C2.13333 1.36361 1.83333 1.66227 1.83333 2.03027V4.83027C1.83333 5.40761 2.07733 5.95561 2.50133 6.33027L12.7133 15.4023C13.424 16.0343 13.8333 16.9423 13.8333 17.8943V30.1863L18.844 27.1809C19.0427 27.0609 19.1667 26.8409 19.1667 26.6089V17.8956C19.1667 16.9436 19.576 16.0343 20.2867 15.4036L30.4973 6.33294C30.9227 5.95561 31.1667 5.40761 31.1667 4.83027V2.03027C31.1667 1.66227 30.8667 1.36361 30.5 1.36361H2.5Z" fill="#5DAC19"/>
</svg>
