<svg width="49" height="49" viewBox="0 0 49 49" fill="none" xmlns="http://www.w3.org/2000/svg">
<g clip-path="url(#clip0)">
<path d="M47.7 10.1H33.3C32.8582 10.1 32.5 10.4582 32.5 10.9V29.3H14.9V26.9C14.9 26.4582 14.5418 26.1 14.1 26.1H11.7V27.7H13.3V29.3H10.1V26.1H8.5V29.3H5.3V27.7H6.9V26.1H4.5C4.0582 26.1 3.7 26.4582 3.7 26.9V29.3H1.3C0.858203 29.3 0.5 29.6582 0.5 30.1V47.7C0.5 48.1418 0.858203 48.5 1.3 48.5H47.7C48.1418 48.5 48.5 48.1418 48.5 47.7V10.9C48.5 10.4582 48.1418 10.1 47.7 10.1ZM34.1 11.7H46.9V21.3H34.1V11.7ZM32.5 34.1H18.1V30.9H32.5V34.1ZM2.1 30.9H16.5V34.1H2.1V30.9ZM2.1 35.7H16.5V46.9H2.1V35.7ZM18.1 35.7H24.5V46.9H18.1V35.7ZM26.1 35.7H32.5V46.9H26.1V35.7ZM34.1 46.9V22.9H46.9V46.9H34.1Z" fill="#272B34"/>
<path d="M35.7 14.9H37.2999V18.1H35.7V14.9Z" fill="#272B34"/>
<path d="M35.7 26.1H37.2999V29.3H35.7V26.1Z" fill="#272B34"/>
<path d="M5.29995 32.5001C5.29995 32.9419 4.94175 33.3001 4.49995 33.3001C4.05815 33.3001 3.69995 32.9419 3.69995 32.5001C3.69995 32.0583 4.05815 31.7001 4.49995 31.7001C4.94175 31.7001 5.29995 32.0583 5.29995 32.5001Z" fill="#272B34"/>
<path d="M8.4999 32.5001C8.4999 32.9419 8.1417 33.3001 7.6999 33.3001C7.25811 33.3001 6.8999 32.9419 6.8999 32.5001C6.8999 32.0583 7.25811 31.7001 7.6999 31.7001C8.1417 31.7001 8.4999 32.0583 8.4999 32.5001Z" fill="#272B34"/>
<path d="M11.7001 32.5001C11.7001 32.9419 11.3419 33.3001 10.9001 33.3001C10.4583 33.3001 10.1001 32.9419 10.1001 32.5001C10.1001 32.0583 10.4583 31.7001 10.9001 31.7001C11.3419 31.7001 11.7001 32.0583 11.7001 32.5001Z" fill="#272B34"/>
<path d="M14.9001 32.5001C14.9001 32.9419 14.5418 33.3001 14.1 33.3001C13.6583 33.3001 13.3 32.9419 13.3 32.5001C13.3 32.0583 13.6583 31.7001 14.1 31.7001C14.5418 31.7001 14.9001 32.0583 14.9001 32.5001Z" fill="#272B34"/>
<path d="M1.3 15.7H17.3C17.7418 15.7 18.1 15.3418 18.1 14.9V12.5C18.1 12.2879 18.0156 12.0844 17.8656 11.9344L14.6656 8.73438C14.5156 8.58438 14.3121 8.5 14.1 8.5H13.3V1.3C13.3 0.858203 12.9418 0.5 12.5 0.5H6.1C5.6582 0.5 5.3 0.858203 5.3 1.3V8.5H4.5C4.28789 8.5 4.08438 8.58438 3.93438 8.73438L0.734375 11.9344C0.584375 12.0844 0.5 12.2879 0.5 12.5V14.9C0.5 15.3418 0.858203 15.7 1.3 15.7ZM6.9 2.1H11.7V8.5H6.9V2.1ZM2.1 12.8313L4.83125 10.1H13.7688L16.5 12.8313V14.1H2.1V12.8313Z" fill="#272B34"/>
<path d="M14.1 37.3H4.49995C4.05815 37.3 3.69995 37.6583 3.69995 38.1V44.5C3.69995 44.9418 4.05815 45.3 4.49995 45.3H14.1C14.5417 45.3 14.9 44.9418 14.9 44.5V38.1C14.9 37.6583 14.5417 37.3 14.1 37.3ZM13.3 43.7H5.29995V38.9H13.3V43.7Z" fill="#272B34"/>
<path d="M23.7 31.7001H26.9V33.3001H23.7V31.7001Z" fill="#272B34"/>
<path d="M21.3 39.7H22.9V42.9H21.3V39.7Z" fill="#272B34"/>
<path d="M27.7 39.7H29.3V42.9H27.7V39.7Z" fill="#272B34"/>
<path d="M19.6999 20.5H24.4999C24.9417 20.5 25.2999 20.1418 25.2999 19.7V18.9C25.2944 17.4453 24.3085 16.1773 22.8999 15.8137V0.5H21.2999V15.8137C19.8913 16.1773 18.9054 17.4453 18.8999 18.9V19.7C18.8999 20.1418 19.2581 20.5 19.6999 20.5ZM22.0999 17.3C22.9835 17.3 23.6999 18.0164 23.6999 18.9H20.4999C20.4999 18.0164 21.2163 17.3 22.0999 17.3Z" fill="#272B34"/>
<path d="M25.3 14.1H30.1C30.5418 14.1 30.9 13.7418 30.9 13.3V12.5C30.8945 11.0453 29.9086 9.77734 28.5 9.41367V0.5H26.9V9.41367C25.4914 9.77734 24.5055 11.0453 24.5 12.5V13.3C24.5 13.7418 24.8582 14.1 25.3 14.1ZM27.7 10.9C28.5836 10.9 29.3 11.6164 29.3 12.5H26.1C26.1 11.6164 26.8164 10.9 27.7 10.9Z" fill="#272B34"/>
</g>
<defs>
<clipPath id="clip0">
<rect width="48" height="48" fill="white" transform="translate(0.5 0.5)"/>
</clipPath>
</defs>
</svg>
