<svg width="88" height="45" viewBox="0 0 88 45" fill="none" xmlns="http://www.w3.org/2000/svg">
<path d="M4.392 16.7804V24.3124H11.028V25.9084H4.392V34.7844H2.656V15.1844H11.504V16.7804H4.392ZM14.1058 20.0844H15.7578V34.7844H14.1058V20.0844ZM14.9178 17.3684C14.5071 17.3684 14.1805 17.2471 13.9378 17.0044C13.6951 16.7618 13.5738 16.4351 13.5738 16.0244C13.5738 15.6138 13.6951 15.2871 13.9378 15.0444C14.1805 14.8018 14.5071 14.6804 14.9178 14.6804C15.3285 14.6804 15.6551 14.8018 15.8978 15.0444C16.1405 15.2871 16.2618 15.6138 16.2618 16.0244C16.2618 16.4351 16.1405 16.7618 15.8978 17.0044C15.6551 17.2471 15.3285 17.3684 14.9178 17.3684ZM19.5492 14.5404H21.2012V34.7844H19.5492V14.5404ZM35.7406 15.1844V34.7844H34.0046V25.6284H27.0326V34.7844H25.2966V15.1844H27.0326V24.0044H34.0046V15.1844H35.7406ZM44.2903 35.1204C42.7969 35.1204 41.6023 34.6631 40.7063 33.7484C39.8289 32.8151 39.3903 31.4991 39.3903 29.8004V25.0684C39.3903 23.3698 39.8289 22.0631 40.7063 21.1484C41.6023 20.2151 42.7969 19.7484 44.2903 19.7484C45.7836 19.7484 46.9689 20.2151 47.8463 21.1484C48.7423 22.0631 49.1903 23.3698 49.1903 25.0684V29.8004C49.1903 31.4991 48.7423 32.8151 47.8463 33.7484C46.9689 34.6631 45.7836 35.1204 44.2903 35.1204ZM44.2903 33.4964C45.3169 33.4964 46.1103 33.1978 46.6703 32.6004C47.2303 31.9844 47.5103 31.0511 47.5103 29.8004V25.0684C47.5103 23.8178 47.2303 22.8938 46.6703 22.2964C46.1103 21.6804 45.3169 21.3724 44.2903 21.3724C43.2636 21.3724 42.4703 21.6804 41.9103 22.2964C41.3503 22.8938 41.0703 23.8178 41.0703 25.0684V29.8004C41.0703 31.0511 41.3503 31.9844 41.9103 32.6004C42.4703 33.1978 43.2636 33.4964 44.2903 33.4964ZM61.7638 20.0844V34.7844H60.3918L60.1118 32.9644C59.7198 33.6551 59.2064 34.1871 58.5718 34.5604C57.9371 34.9338 57.1811 35.1204 56.3038 35.1204C55.0531 35.1204 54.0824 34.6724 53.3918 33.7764C52.7011 32.8618 52.3558 31.4338 52.3558 29.4924V20.0844H54.0078V29.2404C54.0078 30.7338 54.2224 31.8258 54.6518 32.5164C55.0811 33.2071 55.7718 33.5524 56.7238 33.5524C57.7504 33.5524 58.5718 33.1511 59.1878 32.3484C59.8038 31.5271 60.1118 30.4071 60.1118 28.9884V20.0844H61.7638ZM69.3494 35.1204C67.8934 35.1204 66.7174 34.6911 65.8214 33.8324C64.9254 32.9738 64.4774 31.8351 64.4774 30.4164H66.1294C66.1294 31.3871 66.4094 32.1431 66.9694 32.6844C67.548 33.2258 68.3414 33.4964 69.3494 33.4964C70.264 33.4964 70.9734 33.2818 71.4774 32.8524C71.9814 32.4044 72.2334 31.7884 72.2334 31.0044C72.2334 30.4818 72.084 30.0524 71.7854 29.7164C71.5054 29.3618 71.1507 29.0818 70.7214 28.8764C70.3107 28.6524 69.7134 28.3911 68.9294 28.0924C67.996 27.7191 67.2494 27.3831 66.6894 27.0844C66.1294 26.7671 65.6534 26.3378 65.2614 25.7964C64.8694 25.2551 64.6734 24.5551 64.6734 23.6964C64.6734 22.5018 65.0747 21.5498 65.8774 20.8404C66.6987 20.1124 67.772 19.7484 69.0974 19.7484C70.4787 19.7484 71.58 20.1591 72.4014 20.9804C73.2414 21.8018 73.6614 22.8938 73.6614 24.2564H72.0094C72.0094 23.3418 71.748 22.6324 71.2254 22.1284C70.7214 21.6058 70.012 21.3444 69.0974 21.3444C68.2387 21.3444 67.5667 21.5591 67.0814 21.9884C66.596 22.3991 66.3534 22.9871 66.3534 23.7524C66.3534 24.4431 66.6147 24.9751 67.1374 25.3484C67.66 25.7218 68.4627 26.1138 69.5454 26.5244C70.4974 26.8978 71.2534 27.2431 71.8134 27.5604C72.392 27.8778 72.8867 28.3258 73.2974 28.9044C73.708 29.4644 73.9134 30.1831 73.9134 31.0604C73.9134 32.2738 73.4934 33.2538 72.6534 34.0004C71.8134 34.7471 70.712 35.1204 69.3494 35.1204ZM86.103 30.2764C85.991 31.8258 85.5057 33.0111 84.647 33.8324C83.7883 34.6538 82.603 35.0644 81.091 35.0644C79.635 35.0644 78.4777 34.6071 77.619 33.6924C76.779 32.7778 76.359 31.4898 76.359 29.8284V24.9844C76.359 23.3231 76.7883 22.0351 77.647 21.1204C78.5243 20.2058 79.7003 19.7484 81.175 19.7484C82.6683 19.7484 83.8537 20.2058 84.731 21.1204C85.627 22.0351 86.075 23.3231 86.075 24.9844V28.2324H78.039V29.8284C78.039 31.0418 78.3097 31.9471 78.851 32.5444C79.3923 33.1418 80.1577 33.4404 81.147 33.4404C82.1737 33.4404 82.9483 33.1884 83.471 32.6844C84.0123 32.1618 84.339 31.3591 84.451 30.2764H86.103ZM81.203 21.3724C80.195 21.3724 79.411 21.6711 78.851 22.2684C78.3097 22.8658 78.039 23.7711 78.039 24.9844V26.6924H84.423V24.9844C84.423 23.7711 84.143 22.8658 83.583 22.2684C83.023 21.6711 82.2297 21.3724 81.203 21.3724Z" fill="#272B34"/>
<line x1="20.785" y1="11.9447" x2="31.9268" y2="1.29233" stroke="#5DAC19" stroke-width="2"/>
<line x1="30.4903" y1="1.30803" x2="44.0291" y2="14.8468" stroke="#5DAC19" stroke-width="2"/>
</svg>
