<svg width="48" height="49" viewBox="0 0 48 49" fill="none" xmlns="http://www.w3.org/2000/svg">
<path d="M46.5 32.75H45.75V26.75C45.749 25.9547 45.4326 25.1922 44.8702 24.6298C44.3078 24.0675 43.5453 23.751 42.75 23.75V11C42.749 10.2047 42.4326 9.44221 41.8702 8.87983C41.3078 8.31745 40.5453 8.00104 39.75 8H8.25C7.45467 8.00104 6.69221 8.31745 6.12983 8.87983C5.56745 9.44221 5.25104 10.2047 5.25 11V23.75C4.45467 23.751 3.69221 24.0675 3.12983 24.6298C2.56745 25.1922 2.25104 25.9547 2.25 26.75V32.75H1.5C1.30109 32.75 1.11032 32.829 0.96967 32.9697C0.829018 33.1103 0.75 33.3011 0.75 33.5V36.5C0.75 36.6989 0.829018 36.8897 0.96967 37.0303C1.11032 37.171 1.30109 37.25 1.5 37.25H2.25V40.25C2.25 40.4489 2.32902 40.6397 2.46967 40.7803C2.61032 40.921 2.80109 41 3 41H5.25C5.42334 41.0001 5.59134 40.9401 5.72537 40.8301C5.8594 40.7202 5.95116 40.5672 5.985 40.3972L6.615 37.25H41.385L42.015 40.3972C42.0488 40.5672 42.1406 40.7202 42.2746 40.8301C42.4087 40.9401 42.5767 41.0001 42.75 41H45C45.1989 41 45.3897 40.921 45.5303 40.7803C45.671 40.6397 45.75 40.4489 45.75 40.25V37.25H46.5C46.6989 37.25 46.8897 37.171 47.0303 37.0303C47.171 36.8897 47.25 36.6989 47.25 36.5V33.5C47.25 33.3011 47.171 33.1103 47.0303 32.9697C46.8897 32.829 46.6989 32.75 46.5 32.75ZM6.75 11C6.75052 10.6023 6.90872 10.2211 7.18992 9.93992C7.47111 9.65872 7.85233 9.50052 8.25 9.5H39.75C40.1477 9.50052 40.5289 9.65872 40.8101 9.93992C41.0913 10.2211 41.2495 10.6023 41.25 11V23.75H39.75V20.75C39.749 19.9547 39.4326 19.1922 38.8702 18.6298C38.3078 18.0674 37.5453 17.751 36.75 17.75H27.75C26.9547 17.751 26.1922 18.0674 25.6298 18.6298C25.0674 19.1922 24.751 19.9547 24.75 20.75V23.75H23.25V20.75C23.249 19.9547 22.9326 19.1922 22.3702 18.6298C21.8078 18.0674 21.0453 17.751 20.25 17.75H11.25C10.4547 17.751 9.69221 18.0674 9.12983 18.6298C8.56745 19.1922 8.25104 19.9547 8.25 20.75V23.75H6.75V11ZM38.25 20.75V23.75H26.25V20.75C26.2505 20.3523 26.4087 19.9711 26.6899 19.6899C26.9711 19.4087 27.3523 19.2505 27.75 19.25H36.75C37.1477 19.2505 37.5289 19.4087 37.8101 19.6899C38.0913 19.9711 38.2495 20.3523 38.25 20.75ZM21.75 20.75V23.75H9.75V20.75C9.75052 20.3523 9.90872 19.9711 10.1899 19.6899C10.4711 19.4087 10.8523 19.2505 11.25 19.25H20.25C20.6477 19.2505 21.0289 19.4087 21.3101 19.6899C21.5913 19.9711 21.7495 20.3523 21.75 20.75ZM3.75 26.75C3.75052 26.3523 3.90872 25.9711 4.18992 25.6899C4.47111 25.4087 4.85233 25.2505 5.25 25.25H42.75C43.1477 25.2505 43.5289 25.4087 43.8101 25.6899C44.0913 25.9711 44.2495 26.3523 44.25 26.75V32.75H3.75V26.75ZM4.635 39.5H3.75V37.25H5.085L4.635 39.5ZM44.25 39.5H43.365L42.915 37.25H44.25V39.5ZM45.75 35.75H2.25V34.25H45.75V35.75Z" fill="#272B34"/>
</svg>
