<svg width="48" height="49" viewBox="0 0 48 49" fill="none" xmlns="http://www.w3.org/2000/svg">
<g clip-path="url(#clip0)">
<path d="M47.8812 31.1161L47.0823 29.5184C46.947 29.2478 46.6704 29.0768 46.3678 29.0768H45.569V27.479C45.569 27.2671 45.4848 27.0639 45.335 26.9141L43.7372 25.3164C43.5874 25.1666 43.3842 25.0824 43.1723 25.0824H40.7757C40.4731 25.0824 40.1965 25.2534 40.0612 25.524L39.9768 25.6926L39.8924 25.524C39.7571 25.2534 39.4805 25.0824 39.1779 25.0824H35.9824C35.6798 25.0824 35.4032 25.2534 35.2679 25.524L34.469 27.1217C34.3742 27.3113 34.3586 27.5307 34.4256 27.7317L34.6076 28.2779H34.3846C34.1727 28.2779 33.9695 28.3621 33.8197 28.5119L32.222 30.1097C32.0722 30.2595 31.988 30.4627 31.988 30.6746V32.2723H30.2997C30.0503 31.2721 29.3065 30.469 28.3283 30.1437L27.8872 29.9967L26.3958 22.5401V16.2281C26.3933 14.0231 24.6064 12.2362 22.4014 12.2337H19.5987L19.581 10.1144C20.3686 9.25136 20.8047 8.12494 20.8036 6.95667V5.04375C20.8046 2.83874 19.018 1.05044 16.813 1.04934C16.1559 1.04904 15.5089 1.21092 14.9295 1.52058C14.3073 0.35232 12.8559 -0.0904601 11.6876 0.531769C10.5193 1.154 10.0766 2.60537 10.6988 3.77363C11.1152 4.55554 11.929 5.04405 12.8149 5.04375V6.95667C12.8139 8.12943 13.2535 9.25985 14.0466 10.1238V12.2337H11.2172C9.01214 12.2362 7.22525 14.0231 7.22275 16.2281V22.5401L5.73134 29.9967L5.29025 30.1437C4.31202 30.469 3.56827 31.2721 3.31881 32.2723H0.831596C0.390414 32.2723 0.0327148 32.63 0.0327148 33.0712V47.4511C0.0327148 47.8923 0.390414 48.25 0.831596 48.25H4.02712C4.46831 48.25 4.826 47.8923 4.826 47.4511V37.0656H9.71915L12.8478 47.6117C12.9472 47.9468 13.253 48.1784 13.6025 48.1833L18.3292 48.2499H18.3404C18.7816 48.2499 19.1393 47.8922 19.1393 47.451C19.1393 47.3253 19.1096 47.2012 19.0526 47.0891L17.036 43.1209L15.3484 35.2328L19.2403 43.7063L20.0207 47.5438C20.0964 47.9159 20.4238 48.1834 20.8036 48.1834H24.798C25.2392 48.1834 25.5969 47.8258 25.5969 47.3845C25.5969 47.2978 25.5828 47.2116 25.5552 47.1295L22.167 37.0656H28.7925V47.4511C28.7925 47.8923 29.1502 48.25 29.5913 48.25H47.1667C47.6079 48.25 47.9656 47.8923 47.9656 47.4511V31.4734C47.9656 31.3494 47.9368 31.2271 47.8812 31.1161ZM46.3678 31.6621V32.2723H43.9712V31.8043L45.1009 30.6746H45.8741L46.3678 31.6621ZM37.5802 31.1428V29.8757H38.8471L39.271 30.2998L39.2623 30.3173C39.1675 30.5068 39.1518 30.7262 39.2189 30.9272L39.6672 32.2723H38.7099L37.5802 31.1428ZM40.8394 30.7361L41.2694 29.8757H43.1723V30.3436L42.6074 30.9085C42.4576 31.0583 42.3734 31.2615 42.3734 31.4734V32.2723H41.3515L40.8394 30.7361ZM41.2694 26.6802H42.8415L43.9712 27.8099V28.2779H41.9055L40.9488 27.3213L41.2694 26.6802ZM36.0461 27.5403L36.4761 26.6802H38.6842L39.1142 27.5404L38.8683 28.2779H36.292L36.0461 27.5403ZM33.5857 31.0054L34.7155 29.8757H35.9824V31.1426L34.8527 32.2723H33.5857V31.0054ZM13.5803 27.9306C13.5776 27.9348 13.5752 27.9391 13.5724 27.9433C13.2575 27.4709 12.8143 27.098 12.2949 26.8687L13.5566 23.7143C13.6414 23.5024 13.6314 23.2644 13.5293 23.0603C13.5293 23.0603 12.1063 20.6898 11.9344 20.3391C11.928 20.3262 11.9207 20.3138 11.9137 20.3012C11.7815 20.0224 11.6874 19.7271 11.6341 19.4232H20.8733L20.1624 22.6222C20.0283 23.2214 20.1302 23.8491 20.4468 24.3752L22.0603 27.0641C22.2837 27.4369 22.4016 27.8633 22.4014 28.2979V29.8095C22.3999 30.9369 21.6139 31.9112 20.5124 32.1515L19.4731 29.0638C18.9808 27.5991 17.6078 26.6127 16.0626 26.6136C15.0678 26.613 14.1376 27.1065 13.5803 27.9306ZM14.4226 7.19135L19.2059 5.39756V6.95667C19.207 7.99023 18.6903 8.95568 17.8297 9.52807C17.2118 9.94 16.4067 9.94 15.7888 9.52807C14.9975 9.00141 14.4934 8.13922 14.4226 7.19135ZM18.8677 3.81817L14.4126 5.48883V5.04375C14.4122 3.7205 15.4845 2.64751 16.8077 2.64701C17.6529 2.64671 18.4357 3.09178 18.8677 3.81817ZM12.8148 3.44599C12.3736 3.44599 12.0159 3.08829 12.0159 2.64711C12.0159 2.20592 12.3736 1.84823 12.8148 1.84823C13.256 1.84823 13.6137 2.20592 13.6137 2.64711V2.6501C13.4498 2.8685 13.3088 3.10307 13.1928 3.35022C13.0767 3.41293 12.9467 3.44579 12.8148 3.44599ZM5.79555 31.6595L6.67641 31.3659C6.94843 31.2752 7.15095 31.0457 7.20717 30.7646L8.80493 22.7758C8.81522 22.7242 8.82041 22.6718 8.82041 22.6191V16.2281C8.82191 14.9051 9.89411 13.8329 11.2171 13.8314H14.8454C15.2866 13.8314 15.6443 13.4738 15.6443 13.0326V11.2299C16.4031 11.5052 17.235 11.503 17.9924 11.2236L18.0076 13.0393C18.0111 13.4778 18.3677 13.8315 18.8064 13.8315H22.4014C23.7243 13.833 24.7965 14.9052 24.798 16.2282V22.6192C24.798 22.6719 24.8032 22.7243 24.8135 22.7759L26.4113 30.7647C26.4675 31.0458 26.67 31.2753 26.942 31.366L27.8229 31.6596C28.1175 31.7575 28.3716 31.9494 28.5465 32.2058H25.4336L23.2003 22.5282V16.2281C23.2004 15.7869 22.8428 15.4291 22.4016 15.429C22.027 15.4289 21.7027 15.6891 21.6215 16.0548L21.2279 17.8259H11.7363L12.0025 16.3719L10.4309 16.0843L9.99876 18.4477L10.0106 18.4499C10.0005 18.4943 9.99417 18.5396 9.99167 18.5851C9.95303 19.3713 10.0991 20.1557 10.4182 20.8753V22.5282L9.36625 27.0865C8.99487 27.3103 8.67062 27.6043 8.41168 27.9521C7.77857 28.7926 7.58394 29.8846 7.88762 30.8922L8.27707 32.2057H5.07156C5.24642 31.9492 5.50086 31.7573 5.79555 31.6595ZM23.8094 32.2723H23.145C23.3358 32.0308 23.4982 31.7679 23.6287 31.4891L23.8094 32.2723ZM3.22824 46.6522H1.63048V37.0656H3.22824V46.6522ZM1.63048 35.4679V33.8701H8.77108L9.24512 35.4679H1.63048ZM15.5645 43.752L17.0289 46.6336L14.2129 46.5937L9.41957 30.4377C9.14725 29.5199 9.67052 28.5552 10.5883 28.2829C10.7484 28.2355 10.9144 28.2113 11.0813 28.2113C11.7259 28.2098 12.2877 28.6498 12.4406 29.2759L15.4956 43.5572C15.51 43.6248 15.5332 43.6902 15.5645 43.752ZM21.4562 46.5856L20.7872 43.2974C20.7749 43.2374 20.7558 43.179 20.7302 43.1232L14.7562 30.1148C14.4782 29.3933 14.8377 28.583 15.5592 28.305C15.7198 28.2431 15.8904 28.2113 16.0626 28.2113C16.9218 28.2108 17.6852 28.7593 17.9588 29.5737L23.6861 46.5856H21.4562ZM21.0911 33.8701H31.988V35.4679H21.6291L21.0911 33.8701ZM30.3902 37.0656H31.988V46.6522H30.3902V37.0656ZM33.5857 46.6522V33.8701H46.3678V35.4679H35.1835V37.0656H46.3678V46.6522H33.5857Z" fill="#272B34"/>
<path d="M35.1843 38.6635H36.7821V40.2612H35.1843V38.6635Z" fill="#272B34"/>
<path d="M35.1843 41.859H36.7821V45.0546H35.1843V41.859Z" fill="#272B34"/>
<path d="M34.8687 17.5353C34.5068 18.2636 34.5068 19.1193 34.8687 19.8475C35.007 20.1257 35.007 20.4526 34.8687 20.7308C34.5068 21.4591 34.5068 22.3148 34.8687 23.0431L35.2681 23.8419L36.6971 23.1273L36.2977 22.3285C36.1596 22.0502 36.1596 21.7234 36.2977 21.4452C36.6599 20.717 36.6599 19.8611 36.2977 19.1329C36.1596 18.8547 36.1596 18.5279 36.2977 18.2497C36.6598 17.5214 36.6598 16.6656 36.2977 15.9373L35.8982 15.1384L34.4692 15.853L34.8687 16.6519C35.007 16.9301 35.007 17.2571 34.8687 17.5353Z" fill="#272B34"/>
<path d="M38.8635 17.5353C38.5017 18.2636 38.5017 19.1192 38.8635 19.8474C39.0018 20.1256 39.0018 20.4526 38.8635 20.7308C38.5017 21.4591 38.5017 22.3148 38.8635 23.0431L39.263 23.8419L40.692 23.1273L40.2925 22.3285C40.1543 22.0502 40.1543 21.7233 40.2925 21.4451C40.6544 20.7168 40.6544 19.8612 40.2925 19.1329C40.1543 18.8547 40.1543 18.5278 40.2925 18.2496C40.6544 17.5213 40.6544 16.6656 40.2925 15.9373L39.8931 15.1384L38.4641 15.853L38.8635 16.6519C39.0018 16.9301 39.0018 17.2571 38.8635 17.5353Z" fill="#272B34"/>
<path d="M42.8582 17.5353C42.4963 18.2636 42.4963 19.1192 42.8582 19.8474C42.9964 20.1256 42.9964 20.4526 42.8582 20.7308C42.4963 21.4591 42.4963 22.3148 42.8582 23.0431L43.2576 23.8419L44.6866 23.1273L44.2872 22.3285C44.149 22.0502 44.149 21.7233 44.2872 21.4451C44.6491 20.7168 44.6491 19.8612 44.2872 19.1329C44.149 18.8547 44.149 18.5278 44.2872 18.2496C44.6491 17.5213 44.6491 16.6656 44.2872 15.9373L43.8877 15.1384L42.4587 15.853L42.8582 16.6519C42.9964 16.9301 42.9964 17.2571 42.8582 17.5353Z" fill="#272B34"/>
</g>
<defs>
<clipPath id="clip0">
<rect width="48" height="48" fill="white" transform="translate(0 0.25)"/>
</clipPath>
</defs>
</svg>
