<svg width="48" height="48" viewBox="0 0 48 48" fill="none" xmlns="http://www.w3.org/2000/svg">
<g clip-path="url(#clip0)">
<path d="M46.6261 37.6541C48.4538 39.4819 48.4538 42.4555 46.6261 44.2832C46.6235 44.2862 46.6206 44.2887 46.6177 44.2917L43.4104 47.459C43.0449 47.8197 42.5689 47.9999 42.0931 47.9999C41.609 47.9999 41.1256 47.8139 40.7587 47.4425C40.0314 46.7057 40.0387 45.5185 40.7755 44.7908L42.652 42.9374H12.5616C8.42597 42.9374 5.0616 39.573 5.0616 35.4374V5.30163L3.191 7.14732C2.45382 7.87462 1.26657 7.86656 0.539273 7.12938C-0.188021 6.3922 -0.179964 5.20495 0.557217 4.47765L3.72494 1.35278C5.54756 -0.445312 8.51313 -0.445312 10.3358 1.35278L13.5035 4.47765C14.2407 5.20495 14.2487 6.3922 13.5214 7.12938C13.1545 7.50108 12.6707 7.68748 12.1866 7.68748C11.7109 7.68748 11.2352 7.50768 10.8697 7.14732L8.81159 5.11669V35.4374C8.81159 37.5051 10.494 39.1874 12.5616 39.1874H42.842L40.7755 37.1465C40.0387 36.4189 40.031 35.2316 40.7587 34.4948C41.4863 33.7584 42.6736 33.7507 43.4104 34.4783L46.6177 37.6457C46.6206 37.6486 46.6235 37.6512 46.6261 37.6541ZM42.374 0H18.0928C17.0546 0 16.2142 0.843748 16.2178 1.88195C16.2219 2.91467 17.0601 3.74999 18.0928 3.74999H42.374C43.4097 3.74999 44.249 4.58935 44.249 5.62499V29.9999C44.249 31.0327 45.0844 31.8713 46.1171 31.8749C47.1553 31.8786 47.999 31.0381 47.999 29.9999V5.62499C47.999 2.51843 45.4806 0 42.374 0ZM27.5616 32.1459C28.5972 32.1459 29.4366 31.3066 29.4366 30.2709V21.9257C29.4366 19.0825 27.1236 16.7695 24.2803 16.7695C23.0348 16.7695 21.8912 17.2133 20.9991 17.9513C20.107 17.2133 18.9633 16.7695 17.7178 16.7695C17.0026 16.7695 16.3207 16.9163 15.7011 17.1808C15.3675 16.8753 14.9244 16.6875 14.4366 16.6875C13.4009 16.6875 12.5616 17.5268 12.5616 18.5625V30.2812C12.5616 31.3168 13.4009 32.1562 14.4366 32.1562C15.4722 32.1562 16.3116 31.3168 16.3116 30.2812V21.9257C16.3116 21.1505 16.9426 20.5195 17.7178 20.5195C18.4931 20.5195 19.1241 21.1505 19.1241 21.9257V30.2812C19.1241 31.3168 19.9634 32.1562 20.9991 32.1562C22.0347 32.1562 22.8741 31.3168 22.8741 30.2812V21.9257C22.8741 21.1505 23.505 20.5195 24.2803 20.5195C25.0556 20.5195 25.6866 21.1505 25.6866 21.9257V30.2709C25.6866 31.3066 26.5259 32.1459 27.5616 32.1459ZM36.0694 10.125C36.0595 10.125 36.0499 10.1264 36.0401 10.1264C36.0305 10.1264 36.021 10.125 36.0111 10.125C33.6267 10.125 31.6865 12.0674 31.6865 14.4547C31.6865 15.49 32.5259 16.3297 33.5615 16.3297C34.5972 16.3297 35.4365 15.49 35.4365 14.4547C35.4365 14.1405 35.6998 13.875 36.0111 13.875C36.021 13.875 36.0305 13.8735 36.0404 13.8735C36.0499 13.8735 36.0595 13.875 36.0694 13.875C36.3678 13.875 36.622 14.1189 36.6425 14.4159C36.6055 14.5532 36.318 15.4024 34.5214 17.3789C33.407 18.6042 32.312 19.6021 32.3014 19.6117C31.7276 20.1324 31.5335 20.9527 31.8125 21.6752C32.0916 22.3981 32.7866 22.875 33.5615 22.875H38.624C39.6597 22.875 40.499 22.0356 40.499 21C40.499 19.9643 39.6597 19.125 38.624 19.125H37.9791C39.6439 17.165 40.3939 15.7064 40.3939 14.4547C40.3939 12.0674 38.4537 10.125 36.0694 10.125Z" fill="#272B34"/>
</g>
<defs>
<clipPath id="clip0">
<rect width="48" height="48" fill="white"/>
</clipPath>
</defs>
</svg>
