<svg width="48" height="48" fill="none" xmlns="http://www.w3.org/2000/svg"><path d="M46.626 37.654a4.693 4.693 0 010 6.63l-.008.008-3.208 3.167a1.87 1.87 0 01-1.317.54 1.875 1.875 0 01-1.318-3.21l1.877-1.852h-30.09c-4.136 0-7.5-3.364-7.5-7.5V5.302L3.19 7.147a1.875 1.875 0 01-2.634-2.67l3.168-3.124c1.823-1.798 4.788-1.798 6.61 0l3.168 3.125a1.875 1.875 0 01-2.633 2.67L8.812 5.116v30.32a3.754 3.754 0 003.75 3.75h30.28l-2.066-2.04a1.875 1.875 0 112.634-2.669l3.208 3.168.008.008zM42.374 0H18.093a1.875 1.875 0 000 3.75h24.281c1.036 0 1.875.84 1.875 1.875V30a1.875 1.875 0 103.75 0V5.625A5.625 5.625 0 0042.374 0zM27.562 32.146c1.035 0 1.875-.84 1.875-1.875v-8.345a5.162 5.162 0 00-5.157-5.156A5.126 5.126 0 0021 17.951a5.132 5.132 0 00-3.282-1.181c-.715 0-1.397.146-2.017.41a1.875 1.875 0 00-3.14 1.382v11.72a1.875 1.875 0 103.75 0v-8.356a1.407 1.407 0 012.813 0v8.355a1.875 1.875 0 103.75 0v-8.355a1.408 1.408 0 012.813 0v8.345c0 1.036.839 1.875 1.875 1.875zm8.507-22.021l-.029.001-.029-.001a4.332 4.332 0 00-4.325 4.33 1.875 1.875 0 003.75 0c0-.315.264-.58.575-.58l.03-.002.028.002c.299 0 .553.244.573.54-.037.138-.324.987-2.12 2.964a37.65 37.65 0 01-2.22 2.233 1.875 1.875 0 001.26 3.263h5.062a1.875 1.875 0 100-3.75h-.645c1.665-1.96 2.415-3.419 2.415-4.67 0-2.388-1.94-4.33-4.325-4.33z" fill="#272B34"/></svg>