<svg width="37" height="37" fill="none" xmlns="http://www.w3.org/2000/svg"><path d="M20.559 20.29a9.4 9.4 0 01-4.36-3.814.461.461 0 01.068-.534l.872-.95a.45.45 0 00.084-.49l-1.372-2.616s-.608-.928-1.851-.13c0 0-3.268 2.554-1.181 6.064 2.087 3.51 4.05 4.697 5.816 5.558 1.536.748 4.86 1.744 6.868-1.907 0 0 .703-1.125 0-1.412-.32-.13-2.07-.995-2.812-1.355a.461.461 0 00-.563.123l-1.046 1.322a.456.456 0 01-.523.14v0z" stroke="#272B34"/><path d="M5.484 30.314l2.25-6.3a12.938 12.938 0 114.86 4.95l-7.11 1.35z" stroke="#272B34" stroke-linecap="round"/></svg>